<svg width="24" height="24" viewBox="0 0 24 24" fill="none" xmlns="http://www.w3.org/2000/svg">
<path d="M18.9365 10.0349C18.8799 9.98155 18.8235 9.92836 18.7385 9.92836H13.2261L16.7314 0.703412L16.8727 0.330158C16.9009 0.250187 16.9009 0.170216 16.8445 0.11684L16.8163 0.0902457C16.7316 -0.0163202 16.5336 -0.0431009 16.4206 0.0902457L5.05654 13.6877C4.97175 13.7677 4.99995 13.8744 5.02835 13.9544C5.08494 14.0078 5.14134 14.061 5.22632 14.061H10.767L10.569 14.5408L7.12024 23.6858C7.09204 23.7657 7.09204 23.8457 7.14843 23.8991C7.23322 24.0056 7.4312 24.059 7.57238 23.8991L7.65718 23.7925L18.8516 10.4083L18.9364 10.3018C19.0212 10.2482 19.0212 10.1149 18.9364 10.0349L18.9365 10.0349Z" fill="#FF4646"/>
</svg>
