<svg width="24" height="24" viewBox="0 0 24 24" fill="none" xmlns="http://www.w3.org/2000/svg">
<path fill-rule="evenodd" clip-rule="evenodd" d="M21 12C21 9.51472 19.9926 7.26477 18.364 5.63602C16.7353 4.00736 14.4853 3 12 3C9.51468 3 7.26477 4.00736 5.63602 5.63602C4.00736 7.26468 3 9.51468 3 12C3 14.4853 4.00736 16.7352 5.63602 18.364C7.26468 19.9926 9.51468 21 12 21C14.4853 21 16.7352 19.9926 18.364 18.364C19.9926 16.7353 21 14.4853 21 12ZM19.8866 12C19.8866 9.90011 19.0612 7.90791 17.5766 6.42325C16.0921 4.93859 14.0997 4.11327 11.9999 4.11327C9.89998 4.11327 7.90778 4.93872 6.42312 6.42325C4.93846 7.90778 4.11315 9.90015 4.11315 12C4.11315 14.0999 4.93859 16.0921 6.42312 17.5768C7.90765 19.0614 9.90002 19.8867 11.9999 19.8867C14.0998 19.8867 16.092 19.0613 17.5766 17.5768C19.0613 16.0922 19.8866 14.0999 19.8866 12Z" fill="white"/>
<path fill-rule="evenodd" clip-rule="evenodd" d="M13.2834 11.3337V15.2326C13.4251 15.1426 13.6056 15.0024 13.8144 14.7847C13.8762 14.705 13.978 14.6596 14.085 14.675C14.2436 14.6976 14.3539 14.8445 14.3314 15.0033H14.3309C14.2618 15.4887 13.9099 16.1175 13.4425 16.5889C13.0273 17.0075 12.5117 17.3139 12 17.3139C11.6468 17.3139 11.3258 17.1696 11.0934 16.9371C10.8609 16.7047 10.7166 16.3838 10.7166 16.0305V12.1316C10.575 12.2216 10.3944 12.3618 10.1856 12.5795C10.1238 12.6592 10.0221 12.7046 9.91503 12.6892C9.75647 12.6666 9.64613 12.5197 9.66866 12.3609H9.66916C9.73825 11.8755 10.0902 11.2467 10.5575 10.7753C10.9728 10.3567 11.4883 10.0503 12 10.0503C12.3532 10.0503 12.6742 10.1946 12.9066 10.4271C13.1391 10.6595 13.2834 10.9805 13.2834 11.3337Z" fill="white"/>
<path fill-rule="evenodd" clip-rule="evenodd" d="M11.6699 6.68604C12.0449 6.68604 12.3845 6.83813 12.6303 7.08384C12.876 7.32955 13.0281 7.66922 13.0281 8.04417C13.0281 8.41911 12.876 8.75878 12.6303 9.00449C12.3845 9.2502 12.0449 9.4023 11.6699 9.4023C11.295 9.4023 10.9553 9.2502 10.7096 9.00449C10.4639 8.75878 10.3118 8.41912 10.3118 8.04417C10.3118 7.66922 10.4639 7.32955 10.7096 7.08384C10.9553 6.83813 11.295 6.68604 11.6699 6.68604Z" fill="white"/>
</svg>
