<svg width="24" height="24" viewBox="0 0 24 24" fill="none" xmlns="http://www.w3.org/2000/svg">
<path d="M4 20L20 4" stroke="white"/>
<path fill-rule="evenodd" clip-rule="evenodd" d="M15.0167 6.56905C13.9489 5.06695 12.8103 4 12 4C10 4 6 10.5 6 14C6 14.4883 6.05833 14.963 6.1684 15.4174L7.03049 14.5553C7.01034 14.373 7 14.1877 7 14C7 13.292 7.20779 12.3555 7.59448 11.307C7.97623 10.2718 8.50953 9.18866 9.1052 8.2058C9.70335 7.21884 10.3448 6.36546 10.93 5.77322C11.2232 5.47658 11.4807 5.2675 11.691 5.13846C11.8905 5.01602 11.9883 5.00182 11.9995 5.0002L12 5.00013L12.0005 5.0002C12.0117 5.00182 12.1095 5.01602 12.309 5.13846C12.5193 5.2675 12.7768 5.47658 13.07 5.77322C13.4643 6.17223 13.8841 6.68977 14.299 7.28684L15.0167 6.56905ZM7.76115 16.6531C8.64533 18.0628 10.2132 19 12 19C14.7614 19 17 16.7614 17 14C17 13.292 16.7922 12.3555 16.4055 11.307C16.1294 10.5582 15.7739 9.78423 15.3729 9.04131L16.1093 8.3049C17.1863 10.2324 18 12.4214 18 14C18 17.3137 15.3137 20 12 20C9.93793 20 8.11882 18.9598 7.0388 17.3754L7.76115 16.6531Z" fill="white"/>
<path fill-rule="evenodd" clip-rule="evenodd" d="M15.0167 6.56906C13.9489 5.06695 12.8103 4 12 4V9.5858L15.0167 6.56906ZM12 12.4142V20C15.3137 20 18 17.3137 18 14C18 12.4214 17.1863 10.2324 16.1093 8.3049L12 12.4142Z" fill="white"/>
</svg>
