<svg width="18" height="21" viewBox="0 0 18 21" fill="none" xmlns="http://www.w3.org/2000/svg">
<path fill-rule="evenodd" clip-rule="evenodd" d="M12 0H6V2H12V0ZM17.45 4.97C17.02 4.46 16.55 3.98 16.04 3.56L14.62 4.98L14.6153 4.97626C13.0661 3.73851 11.1179 3 9 3C4.03 3 0 7.03 0 12C0 16.97 4.02 21 9 21C13.98 21 18 16.97 18 12C18 9.88215 17.2615 7.93396 16.0337 6.39469L16.03 6.39L17.45 4.97ZM13.9826 7.03134L13.3706 6.54174C12.1583 5.57192 10.6447 5 9 5C5.13457 5 2 8.13457 2 12C2 15.8669 5.12602 19 9 19C12.874 19 16 15.8669 16 12C16 10.3538 15.4271 8.83984 14.4673 7.63815L13.9826 7.03134ZM10 13V7H8V13H10Z" fill="white"/>
</svg>
