<svg width="24" height="24" viewBox="0 0 24 24" fill="none" xmlns="http://www.w3.org/2000/svg">
<path d="M17.5 14C17.5 17.0376 15.0376 19.5 12 19.5C8.96243 19.5 6.5 17.0376 6.5 14C6.5 13.2085 6.72889 12.209 7.12536 11.1339C7.51936 10.0656 8.06726 8.9537 8.6776 7.94665C9.28918 6.93755 9.95363 6.04992 10.5744 5.42177C10.885 5.10743 11.1739 4.8691 11.4295 4.71229C11.6907 4.55201 11.8794 4.5 12 4.5C12.1206 4.5 12.3093 4.55201 12.5705 4.71229C12.8261 4.8691 13.115 5.10743 13.4256 5.42177C14.0464 6.04992 14.7108 6.93755 15.3224 7.94665C15.9327 8.9537 16.4806 10.0656 16.8746 11.1339C17.2711 12.209 17.5 13.2085 17.5 14Z" stroke="white"/>
<path fill-rule="evenodd" clip-rule="evenodd" d="M12 20C15.3137 20 18 17.3137 18 14C18 10.5 14 4 12 4V20Z" fill="white"/>
</svg>
