<svg width="16" height="22" viewBox="0 0 16 22" fill="none" xmlns="http://www.w3.org/2000/svg">
<path fill-rule="evenodd" clip-rule="evenodd" d="M7.99994 4.70004V6.27496C7.99994 6.41418 8.05268 6.54777 8.14643 6.64621C8.24018 6.74465 8.36741 6.80002 8.5 6.80002C8.6197 6.79844 8.73504 6.75186 8.82494 6.66871L11.8249 4.04376C11.9227 3.9448 11.9779 3.80821 11.9779 3.66566C11.9779 3.5231 11.9227 3.38669 11.8249 3.28773L8.82494 0.662775C8.73956 0.568027 8.62371 0.509846 8.5 0.5C8.22377 0.5 7.99994 0.735023 7.99994 1.02488V2.59989C5.87819 2.59989 3.84335 3.48495 2.34328 5.06032C0.84295 6.63551 4.36457e-05 8.77212 4.36457e-05 10.9999C-0.00581573 12.8544 0.578438 14.6579 1.66006 16.1241C1.82177 16.3447 2.0605 16.489 2.32348 16.5248C2.58648 16.5607 2.85233 16.4855 3.06259 16.3157C3.27268 16.1459 3.40996 15.8952 3.44428 15.6191C3.47843 15.3429 3.40678 15.0638 3.24506 14.843C2.43344 13.7436 1.99536 12.391 2.00003 11.0001C2.00003 9.32925 2.63217 7.72684 3.75733 6.54523C4.88266 5.3638 6.40873 4.70005 7.99994 4.70004ZM13.4802 5.54757C13.8349 5.50258 14.1855 5.6599 14.3997 5.95996L14.4 5.96026C15.5946 7.63251 16.1522 9.71255 15.9642 11.7936C15.7762 13.8746 14.8558 15.8073 13.3831 17.2139C11.91 18.6205 9.99068 19.4001 7.99986 19.4001V20.9751C7.99986 21.1143 7.94712 21.2477 7.85337 21.3464C7.75962 21.4448 7.63239 21.5 7.4998 21.5C7.37676 21.4914 7.26091 21.4353 7.17486 21.3425L4.17489 18.7175C4.07713 18.6186 4.02188 18.4822 4.02188 18.3396C4.02188 18.1969 4.07713 18.0605 4.17489 17.9615L7.17486 15.3366C7.26393 15.2515 7.37944 15.203 7.4998 15.2C7.63239 15.2 7.75962 15.2553 7.85337 15.3538C7.94712 15.4522 7.99986 15.5858 7.99986 15.725V17.3C9.49299 17.3 10.9325 16.7154 12.0371 15.6605C13.1417 14.6054 13.8319 13.156 13.973 11.595C14.114 10.0342 13.6958 8.47416 12.7998 7.21996C12.5855 6.9199 12.5398 6.52246 12.6801 6.17757C12.8206 5.83251 13.1254 5.5924 13.4802 5.54757Z" fill="white"/>
</svg>
