<svg width="24" height="24" viewBox="0 0 24 24" fill="none" xmlns="http://www.w3.org/2000/svg">
<path fill-rule="evenodd" clip-rule="evenodd" d="M12.5 2C12.5 1.72386 12.2761 1.5 12 1.5C11.7239 1.5 11.5 1.72386 11.5 2V5V5.5H12.5V5V2ZM12.5 19V18.5H11.5V19V22C11.5 22.2761 11.7239 22.5 12 22.5C12.2761 22.5 12.5 22.2761 12.5 22V19ZM12 16C14.2091 16 16 14.2091 16 12C16 9.79086 14.2091 8 12 8C9.79086 8 8 9.79086 8 12C8 14.2091 9.79086 16 12 16ZM12 17C14.7614 17 17 14.7614 17 12C17 9.23858 14.7614 7 12 7C9.23858 7 7 9.23858 7 12C7 14.7614 9.23858 17 12 17ZM19.4246 4.57538C19.6199 4.77064 19.6199 5.08722 19.4246 5.28249L17.3033 7.40381L16.9497 7.75736L16.2426 7.05025L16.5962 6.6967L18.7175 4.57538C18.9128 4.38012 19.2294 4.38012 19.4246 4.57538ZM7.75736 16.9497L7.40381 17.3033L5.28249 19.4246C5.08722 19.6199 4.77064 19.6199 4.57538 19.4246C4.38012 19.2294 4.38012 18.9128 4.57538 18.7175L6.6967 16.5962L7.05025 16.2426L7.75736 16.9497ZM5.28249 4.57538C5.08722 4.38012 4.77064 4.38012 4.57538 4.57538C4.38012 4.77064 4.38012 5.08722 4.57538 5.28249L6.6967 7.40381L7.05025 7.75736L7.75736 7.05025L7.40381 6.6967L5.28249 4.57538ZM17.3033 16.5962L16.9497 16.2426L16.2426 16.9497L16.5962 17.3033L18.7175 19.4246C18.9128 19.6199 19.2294 19.6199 19.4246 19.4246C19.6199 19.2294 19.6199 18.9128 19.4246 18.7175L17.3033 16.5962ZM1.5 12C1.5 11.7239 1.72386 11.5 2 11.5H5H5.5V12.5H5H2C1.72386 12.5 1.5 12.2761 1.5 12ZM18.5 11.5H19H22C22.2761 11.5 22.5 11.7239 22.5 12C22.5 12.2761 22.2761 12.5 22 12.5H19H18.5V11.5Z" fill="black"/>
</svg>
