<svg width="24" height="24" viewBox="0 0 24 24" fill="none" xmlns="http://www.w3.org/2000/svg">
<path d="M16.1992 15.9935L16.6321 16.2436C16.723 16.0864 16.7214 15.8923 16.6281 15.7365C16.5348 15.5808 16.3643 15.4879 16.1829 15.4938L16.1992 15.9935ZM10.8008 7L11.2338 7.25009C11.3246 7.09287 11.323 6.89877 11.2297 6.74302C11.1364 6.58727 10.966 6.49435 10.7845 6.50027L10.8008 7ZM16.1829 15.4938C16.1222 15.4958 16.0612 15.4968 16 15.4968V16.4968C16.0721 16.4968 16.1439 16.4956 16.2155 16.4932L16.1829 15.4938ZM16 15.4968C12.9624 15.4968 10.5 13.0343 10.5 9.99676H9.5C9.5 13.5866 12.4101 16.4968 16 16.4968V15.4968ZM10.5 9.99676C10.5 8.99536 10.7672 8.05789 11.2338 7.25009L10.3679 6.74991C9.81577 7.70569 9.5 8.81511 9.5 9.99676H10.5ZM5.5 12.9968C5.5 10.0204 7.86438 7.59604 10.8171 7.49973L10.7845 6.50027C7.29424 6.61411 4.5 9.47901 4.5 12.9968H5.5ZM11 18.4968C7.96243 18.4968 5.5 16.0343 5.5 12.9968H4.5C4.5 16.5866 7.41015 19.4968 11 19.4968V18.4968ZM15.7662 15.7434C14.8149 17.3903 13.0364 18.4968 11 18.4968V19.4968C13.408 19.4968 15.5095 18.1871 16.6321 16.2436L15.7662 15.7434Z" fill="white"/>
<path d="M16 8L17 6L18 8L20 9L18 10L17 12L16 10L14 9L16 8Z" stroke="white" stroke-linejoin="round"/>
</svg>
